<mxfile host="Electron" modified="2024-07-09T11:21:27.400Z" agent="Mozilla/5.0 (Windows NT 10.0; Win64; x64) AppleWebKit/537.36 (KHTML, like Gecko) draw.io/24.6.4 Chrome/124.0.6367.207 Electron/30.0.6 Safari/537.36" etag="uqqgB1-B07R0rg4o0R97" version="24.6.4" type="device">
  <diagram name="Страница — 1" id="oFilEDGBPBO85GRjzmGS">
    <mxGraphModel dx="1313" dy="786" grid="1" gridSize="10" guides="1" tooltips="1" connect="1" arrows="1" fold="1" page="1" pageScale="1" pageWidth="2339" pageHeight="3300" math="0" shadow="0">
      <root>
        <mxCell id="0" />
        <mxCell id="1" parent="0" />
        <mxCell id="FmQ2z7PiMO5nj4lULZqu-20" value="User" style="shape=umlLifeline;perimeter=lifelinePerimeter;whiteSpace=wrap;html=1;container=0;dropTarget=0;collapsible=0;recursiveResize=0;outlineConnect=0;portConstraint=eastwest;newEdgeStyle={&quot;edgeStyle&quot;:&quot;elbowEdgeStyle&quot;,&quot;elbow&quot;:&quot;vertical&quot;,&quot;curved&quot;:0,&quot;rounded&quot;:0};" parent="1" vertex="1">
          <mxGeometry x="380" y="160" width="100" height="660" as="geometry" />
        </mxCell>
        <mxCell id="FmQ2z7PiMO5nj4lULZqu-21" value="" style="html=1;points=[];perimeter=orthogonalPerimeter;outlineConnect=0;targetShapes=umlLifeline;portConstraint=eastwest;newEdgeStyle={&quot;edgeStyle&quot;:&quot;elbowEdgeStyle&quot;,&quot;elbow&quot;:&quot;vertical&quot;,&quot;curved&quot;:0,&quot;rounded&quot;:0};" parent="FmQ2z7PiMO5nj4lULZqu-20" vertex="1">
          <mxGeometry x="45" y="80" width="10" height="550" as="geometry" />
        </mxCell>
        <mxCell id="FmQ2z7PiMO5nj4lULZqu-22" value="Backend" style="shape=umlLifeline;perimeter=lifelinePerimeter;whiteSpace=wrap;html=1;container=0;dropTarget=0;collapsible=0;recursiveResize=0;outlineConnect=0;portConstraint=eastwest;newEdgeStyle={&quot;edgeStyle&quot;:&quot;elbowEdgeStyle&quot;,&quot;elbow&quot;:&quot;vertical&quot;,&quot;curved&quot;:0,&quot;rounded&quot;:0};" parent="1" vertex="1">
          <mxGeometry x="690" y="160" width="100" height="670" as="geometry" />
        </mxCell>
        <mxCell id="FmQ2z7PiMO5nj4lULZqu-23" value="" style="html=1;points=[];perimeter=orthogonalPerimeter;outlineConnect=0;targetShapes=umlLifeline;portConstraint=eastwest;newEdgeStyle={&quot;edgeStyle&quot;:&quot;elbowEdgeStyle&quot;,&quot;elbow&quot;:&quot;vertical&quot;,&quot;curved&quot;:0,&quot;rounded&quot;:0};" parent="FmQ2z7PiMO5nj4lULZqu-22" vertex="1">
          <mxGeometry x="45" y="80" width="10" height="550" as="geometry" />
        </mxCell>
        <mxCell id="FmQ2z7PiMO5nj4lULZqu-24" value="Data Base" style="shape=umlLifeline;perimeter=lifelinePerimeter;whiteSpace=wrap;html=1;container=0;dropTarget=0;collapsible=0;recursiveResize=0;outlineConnect=0;portConstraint=eastwest;newEdgeStyle={&quot;edgeStyle&quot;:&quot;elbowEdgeStyle&quot;,&quot;elbow&quot;:&quot;vertical&quot;,&quot;curved&quot;:0,&quot;rounded&quot;:0};" parent="1" vertex="1">
          <mxGeometry x="1030" y="160" width="100" height="670" as="geometry" />
        </mxCell>
        <mxCell id="FmQ2z7PiMO5nj4lULZqu-25" value="" style="html=1;points=[];perimeter=orthogonalPerimeter;outlineConnect=0;targetShapes=umlLifeline;portConstraint=eastwest;newEdgeStyle={&quot;edgeStyle&quot;:&quot;elbowEdgeStyle&quot;,&quot;elbow&quot;:&quot;vertical&quot;,&quot;curved&quot;:0,&quot;rounded&quot;:0};" parent="FmQ2z7PiMO5nj4lULZqu-24" vertex="1">
          <mxGeometry x="45" y="80" width="10" height="550" as="geometry" />
        </mxCell>
        <mxCell id="FmQ2z7PiMO5nj4lULZqu-26" value="отправка формы регистрации" style="html=1;verticalAlign=bottom;endArrow=block;edgeStyle=elbowEdgeStyle;elbow=vertical;curved=0;rounded=0;" parent="1" edge="1">
          <mxGeometry relative="1" as="geometry">
            <mxPoint x="440" y="260" as="sourcePoint" />
            <Array as="points">
              <mxPoint x="530" y="260" />
            </Array>
            <mxPoint x="729.5" y="260" as="targetPoint" />
            <mxPoint as="offset" />
          </mxGeometry>
        </mxCell>
        <mxCell id="FmQ2z7PiMO5nj4lULZqu-30" value="" style="edgeStyle=elbowEdgeStyle;rounded=0;orthogonalLoop=1;jettySize=auto;html=1;elbow=vertical;curved=0;dashed=1;" parent="1" edge="1">
          <mxGeometry relative="1" as="geometry">
            <mxPoint x="1075" y="340" as="sourcePoint" />
            <mxPoint x="750" y="340" as="targetPoint" />
          </mxGeometry>
        </mxCell>
        <mxCell id="FmQ2z7PiMO5nj4lULZqu-31" value="пользователь не был зарегистрирован" style="edgeLabel;html=1;align=center;verticalAlign=middle;resizable=0;points=[];" parent="FmQ2z7PiMO5nj4lULZqu-30" vertex="1" connectable="0">
          <mxGeometry x="0.1744" y="1" relative="1" as="geometry">
            <mxPoint as="offset" />
          </mxGeometry>
        </mxCell>
        <mxCell id="FmQ2z7PiMO5nj4lULZqu-32" value="" style="edgeStyle=elbowEdgeStyle;rounded=0;orthogonalLoop=1;jettySize=auto;html=1;elbow=vertical;curved=0;" parent="1" edge="1">
          <mxGeometry relative="1" as="geometry">
            <mxPoint x="740" y="370" as="sourcePoint" />
            <mxPoint x="1074.5" y="370" as="targetPoint" />
          </mxGeometry>
        </mxCell>
        <mxCell id="FmQ2z7PiMO5nj4lULZqu-33" value="отправка данных пользователя" style="edgeLabel;html=1;align=center;verticalAlign=middle;resizable=0;points=[];" parent="FmQ2z7PiMO5nj4lULZqu-32" vertex="1" connectable="0">
          <mxGeometry x="-0.0194" y="2" relative="1" as="geometry">
            <mxPoint as="offset" />
          </mxGeometry>
        </mxCell>
        <mxCell id="FmQ2z7PiMO5nj4lULZqu-36" value="" style="edgeStyle=elbowEdgeStyle;rounded=0;orthogonalLoop=1;jettySize=auto;html=1;elbow=vertical;curved=0;dashed=1;" parent="1" edge="1">
          <mxGeometry relative="1" as="geometry">
            <mxPoint x="740" y="650" as="sourcePoint" />
            <mxPoint x="440" y="650" as="targetPoint" />
          </mxGeometry>
        </mxCell>
        <mxCell id="FmQ2z7PiMO5nj4lULZqu-37" value="пользователь подтверждён" style="edgeLabel;html=1;align=center;verticalAlign=middle;resizable=0;points=[];" parent="FmQ2z7PiMO5nj4lULZqu-36" vertex="1" connectable="0">
          <mxGeometry x="0.1744" y="1" relative="1" as="geometry">
            <mxPoint as="offset" />
          </mxGeometry>
        </mxCell>
        <mxCell id="FmQ2z7PiMO5nj4lULZqu-38" value="" style="edgeStyle=elbowEdgeStyle;rounded=0;orthogonalLoop=1;jettySize=auto;html=1;elbow=vertical;curved=0;dashed=1;" parent="1" edge="1">
          <mxGeometry relative="1" as="geometry">
            <mxPoint x="745.5" y="454.5" as="sourcePoint" />
            <mxPoint x="440" y="454.5" as="targetPoint" />
          </mxGeometry>
        </mxCell>
        <mxCell id="FmQ2z7PiMO5nj4lULZqu-39" value="пользователь зарегистрирован" style="edgeLabel;html=1;align=center;verticalAlign=middle;resizable=0;points=[];" parent="FmQ2z7PiMO5nj4lULZqu-38" vertex="1" connectable="0">
          <mxGeometry x="-0.2799" y="-3" relative="1" as="geometry">
            <mxPoint x="-45" as="offset" />
          </mxGeometry>
        </mxCell>
        <mxCell id="FmQ2z7PiMO5nj4lULZqu-40" value="" style="edgeStyle=orthogonalEdgeStyle;rounded=0;orthogonalLoop=1;jettySize=auto;html=1;elbow=vertical;" parent="1" edge="1">
          <mxGeometry relative="1" as="geometry">
            <mxPoint x="796" y="270" as="sourcePoint" />
            <mxPoint x="750" y="296" as="targetPoint" />
            <Array as="points">
              <mxPoint x="750" y="270" />
              <mxPoint x="750" y="271" />
              <mxPoint x="861" y="271" />
              <mxPoint x="861" y="296" />
            </Array>
          </mxGeometry>
        </mxCell>
        <mxCell id="FmQ2z7PiMO5nj4lULZqu-41" value="валидация" style="edgeLabel;html=1;align=center;verticalAlign=middle;resizable=0;points=[];" parent="FmQ2z7PiMO5nj4lULZqu-40" vertex="1" connectable="0">
          <mxGeometry x="-0.251" y="-2" relative="1" as="geometry">
            <mxPoint as="offset" />
          </mxGeometry>
        </mxCell>
        <mxCell id="FmQ2z7PiMO5nj4lULZqu-42" value="" style="edgeStyle=elbowEdgeStyle;rounded=0;orthogonalLoop=1;jettySize=auto;html=1;elbow=vertical;curved=0;" parent="1" edge="1">
          <mxGeometry relative="1" as="geometry">
            <mxPoint x="739.5" y="320" as="sourcePoint" />
            <mxPoint x="1070" y="320" as="targetPoint" />
            <Array as="points">
              <mxPoint x="925.5" y="320" />
            </Array>
          </mxGeometry>
        </mxCell>
        <mxCell id="FmQ2z7PiMO5nj4lULZqu-43" value="проверка был ли зарегистрирован&lt;div&gt;&lt;br&gt;&lt;/div&gt;" style="edgeLabel;html=1;align=center;verticalAlign=middle;resizable=0;points=[];labelBackgroundColor=none;" parent="FmQ2z7PiMO5nj4lULZqu-42" vertex="1" connectable="0">
          <mxGeometry x="-0.0118" y="-2" relative="1" as="geometry">
            <mxPoint x="20" y="-2" as="offset" />
          </mxGeometry>
        </mxCell>
        <mxCell id="FmQ2z7PiMO5nj4lULZqu-44" value="" style="edgeStyle=orthogonalEdgeStyle;rounded=0;orthogonalLoop=1;jettySize=auto;html=1;elbow=vertical;" parent="1" edge="1">
          <mxGeometry relative="1" as="geometry">
            <mxPoint x="1074" y="390" as="sourcePoint" />
            <mxPoint x="1079" y="410" as="targetPoint" />
            <Array as="points">
              <mxPoint x="1074" y="391" />
              <mxPoint x="990" y="391" />
              <mxPoint x="990" y="410" />
            </Array>
          </mxGeometry>
        </mxCell>
        <mxCell id="FmQ2z7PiMO5nj4lULZqu-45" value="Сохранение" style="edgeLabel;html=1;align=center;verticalAlign=middle;resizable=0;points=[];" parent="FmQ2z7PiMO5nj4lULZqu-44" vertex="1" connectable="0">
          <mxGeometry x="-0.5878" y="-4" relative="1" as="geometry">
            <mxPoint as="offset" />
          </mxGeometry>
        </mxCell>
        <mxCell id="FmQ2z7PiMO5nj4lULZqu-46" value="" style="edgeStyle=elbowEdgeStyle;rounded=0;orthogonalLoop=1;jettySize=auto;html=1;elbow=vertical;curved=0;dashed=1;" parent="1" source="FmQ2z7PiMO5nj4lULZqu-24" edge="1">
          <mxGeometry relative="1" as="geometry">
            <mxPoint x="1055" y="430" as="sourcePoint" />
            <mxPoint x="750" y="430" as="targetPoint" />
          </mxGeometry>
        </mxCell>
        <mxCell id="FmQ2z7PiMO5nj4lULZqu-47" value="пользователь созранён" style="edgeLabel;html=1;align=center;verticalAlign=middle;resizable=0;points=[];" parent="FmQ2z7PiMO5nj4lULZqu-46" vertex="1" connectable="0">
          <mxGeometry x="0.0527" y="-3" relative="1" as="geometry">
            <mxPoint y="-7" as="offset" />
          </mxGeometry>
        </mxCell>
        <mxCell id="FmQ2z7PiMO5nj4lULZqu-48" value="подтверждение email" style="html=1;verticalAlign=bottom;endArrow=block;edgeStyle=elbowEdgeStyle;elbow=vertical;curved=0;rounded=0;" parent="1" edge="1">
          <mxGeometry relative="1" as="geometry">
            <mxPoint x="440" y="530" as="sourcePoint" />
            <Array as="points">
              <mxPoint x="530" y="530" />
            </Array>
            <mxPoint x="729.5" y="530" as="targetPoint" />
            <mxPoint as="offset" />
          </mxGeometry>
        </mxCell>
        <mxCell id="FmQ2z7PiMO5nj4lULZqu-49" value="подтверждение email" style="html=1;verticalAlign=bottom;endArrow=block;edgeStyle=elbowEdgeStyle;elbow=vertical;curved=0;rounded=0;" parent="1" edge="1">
          <mxGeometry relative="1" as="geometry">
            <mxPoint x="740.5" y="550" as="sourcePoint" />
            <Array as="points">
              <mxPoint x="830.5" y="550" />
            </Array>
            <mxPoint x="1079.5" y="550" as="targetPoint" />
            <mxPoint as="offset" />
          </mxGeometry>
        </mxCell>
        <mxCell id="FmQ2z7PiMO5nj4lULZqu-50" value="" style="edgeStyle=orthogonalEdgeStyle;rounded=0;orthogonalLoop=1;jettySize=auto;html=1;elbow=vertical;" parent="1" edge="1">
          <mxGeometry relative="1" as="geometry">
            <mxPoint x="1074" y="580" as="sourcePoint" />
            <mxPoint x="1079" y="600" as="targetPoint" />
            <Array as="points">
              <mxPoint x="1074" y="581" />
              <mxPoint x="990" y="581" />
              <mxPoint x="990" y="600" />
            </Array>
          </mxGeometry>
        </mxCell>
        <mxCell id="FmQ2z7PiMO5nj4lULZqu-51" value="изменение статуса пользователя&lt;div&gt;&lt;br&gt;&lt;/div&gt;" style="edgeLabel;html=1;align=center;verticalAlign=middle;resizable=0;points=[];labelBackgroundColor=none;" parent="FmQ2z7PiMO5nj4lULZqu-50" vertex="1" connectable="0">
          <mxGeometry x="-0.5878" y="-4" relative="1" as="geometry">
            <mxPoint x="-45" y="3" as="offset" />
          </mxGeometry>
        </mxCell>
        <mxCell id="FmQ2z7PiMO5nj4lULZqu-52" value="" style="edgeStyle=elbowEdgeStyle;rounded=0;orthogonalLoop=1;jettySize=auto;html=1;elbow=vertical;curved=0;dashed=1;" parent="1" edge="1">
          <mxGeometry relative="1" as="geometry">
            <mxPoint x="1070" y="630" as="sourcePoint" />
            <mxPoint x="750" y="630" as="targetPoint" />
          </mxGeometry>
        </mxCell>
        <mxCell id="FmQ2z7PiMO5nj4lULZqu-53" value="пользователь подтверждён" style="edgeLabel;html=1;align=center;verticalAlign=middle;resizable=0;points=[];" parent="FmQ2z7PiMO5nj4lULZqu-52" vertex="1" connectable="0">
          <mxGeometry x="0.1744" y="1" relative="1" as="geometry">
            <mxPoint as="offset" />
          </mxGeometry>
        </mxCell>
      </root>
    </mxGraphModel>
  </diagram>
</mxfile>
